<?xml version="1.0" encoding="iso-8859-1"?>
<!-- Uploaded to: SVG Repo, www.svgrepo.com, Generator: SVG Repo Mixer Tools -->
<svg height="800px" width="800px" version="1.1" id="Layer_1" xmlns="http://www.w3.org/2000/svg" xmlns:xlink="http://www.w3.org/1999/xlink" 
	 viewBox="0 0 512 512" xml:space="preserve">
<path style="fill:#848075;" d="M148.211,67.368c-42.62,0-79.461,24.736-96.954,60.633l-37.758,77.484
	c-3.468,7.119-5.414,15.115-5.414,23.567c0,13.746,5.146,26.291,13.617,35.811l51.171,57.511
	c7.898,8.876,19.407,14.467,32.223,14.467c10.322,0,19.796-3.627,27.218-9.675l83.943-68.409
	c24.254-19.764,39.743-49.874,39.743-83.6C256,115.626,207.74,67.368,148.211,67.368z"/>
<path style="fill:#989487;" d="M148.211,67.368c-42.62,0-79.461,24.736-96.954,60.633l-37.758,77.484
	c-1.195,2.453-2.196,5.019-3.013,7.663l30.05,33.773c3.915,4.401,8.719,7.994,14.129,10.499c0.23,0.106,0.472,0.21,0.727,0.313
	c8.927,3.585,18.867-2.25,20.517-11.728c0.709-4.078,1.439-7.911,2.112-11.434c4.358-22.862,12.13-46.272,22.474-67.698l0.157-0.321
	c13.698-27.335,32.624-50.081,46.088-64.347c3.497-3.705,7.118-7.211,10.857-10.514c9.54-8.426,3.714-24.28-9.014-24.323
	C148.456,67.368,148.333,67.368,148.211,67.368z"/>
<path style="fill:#706B63;" d="M363.789,67.368c42.62,0,79.461,24.736,96.954,60.633l37.758,77.484
	c3.469,7.118,5.414,15.114,5.414,23.566c0,13.746-5.146,26.291-13.617,35.811l-51.171,57.511
	c-7.898,8.875-19.406,14.466-32.221,14.466c-10.322,0-19.796-3.627-27.218-9.675l-83.943-68.409
	C271.489,238.992,256,208.884,256,175.157C256,115.626,304.259,67.368,363.789,67.368z"/>
<g>
	<path style="fill:#848075;" d="M363.789,67.368c42.62,0,79.461,24.736,96.954,60.633l37.758,77.484
		c1.195,2.453,2.196,5.019,3.013,7.663l-30.05,33.773c-3.915,4.401-8.719,7.994-14.129,10.499c-0.23,0.106-0.472,0.21-0.727,0.313
		c-8.927,3.585-18.867-2.25-20.517-11.728c-0.709-4.078-1.44-7.911-2.112-11.434c-4.358-22.862-12.13-46.272-22.474-67.698
		l-0.157-0.321c-13.698-27.335-32.624-50.081-46.088-64.347c-3.497-3.705-7.118-7.211-10.857-10.514
		c-9.54-8.426-3.714-24.28,9.014-24.323C363.544,67.368,363.667,67.368,363.789,67.368z"/>
	<path style="fill:#848075;" d="M409.395,235.283c-6.251-30.036-18.97-58.337-36.531-83.492
		c-21.965-31.466-25.299-34.681-36.175-43.819C314.49,89.323,287.12,78.164,256,78.147L142.609,194.1l-13.024,153.321
		c1.028,0.608,2.061,1.213,3.126,1.789c37.844,20.488,80.565,30.735,123.288,30.746c42.723-0.011,85.446-10.259,123.289-30.746
		c1.065-0.577,2.098-1.181,3.126-1.789c39.995-23.669,35.917-65.428,27.743-108.309
		C409.916,237.839,409.661,236.563,409.395,235.283z"/>
</g>
<path style="fill:#989487;" d="M320.674,261.389c-18.538,0-33.482-15.679-32.268-34.472c1.038-16.072,14.11-29.121,30.184-30.136
	c0.179-0.011,0.358-0.022,0.537-0.029c11.956-0.561,19.914-12.614,15.524-23.749c-14.737-37.38-38.93-72.878-71.346-94.631
	c-2.41-0.143-4.844-0.224-7.305-0.225c-20.006,0.011-38.333,4.784-54.852,13.045c-13.82,6.911-26.167,16.422-36.772,27.659
	c-11.412,12.093-29.376,33.289-42.043,58.567c-9.704,20.101-16.608,41.323-20.491,61.695c-8.174,42.881-12.252,84.64,27.743,108.309
	c1.028,0.608,2.061,1.213,3.126,1.789c2.346,1.27,4.709,2.499,7.091,3.69c17.651,3.645,35.662,5.494,53.679,5.498
	c42.723-0.011,85.446-10.259,123.289-30.746c1.065-0.577,2.098-1.181,3.126-1.789c13.493-7.985,21.97-18.029,26.965-29.48
	c7.525-17.247-5.879-35.899-24.676-35.029C321.685,261.377,321.18,261.389,320.674,261.389z"/>
<path style="fill:#848075;" d="M191.686,196.715L191.686,196.715v0.01c-0.121-0.001-0.239-0.01-0.359-0.01
	c-17.831,0-32.337,14.506-32.337,32.337s14.506,32.337,32.337,32.337c0.121,0,0.239-0.008,0.359-0.01v0.01
	c17.66,0,31.978,14.317,31.978,31.978v140.485c0,5.953,4.826,10.779,10.779,10.779h43.116c5.953,0,10.779-4.826,10.779-10.779
	V293.367C288.337,239.987,245.065,196.715,191.686,196.715z"/>
<path style="fill:#706B63;" d="M247.377,402.234l-23.714,31.618c0,5.953,4.826,10.779,10.779,10.779h43.116
	c5.953,0,10.779-4.826,10.779-10.779l-23.714-31.618C260.312,396.485,251.688,396.485,247.377,402.234z"/>
<path style="fill:#D5D2BD;" d="M212.803,325.872c-0.479,5.979-1.143,11.932-2.028,17.853c-0.924,5.92-2.054,11.804-3.42,17.642
	c-2.797,11.669-6.494,23.168-11.581,34.291c-2.555,5.558-5.45,11.02-8.818,16.316c-3.384,5.287-7.191,10.433-11.793,15.198
	c-4.616,4.732-9.918,9.194-16.396,12.521c-3.201,1.686-6.761,2.973-10.419,3.89c-3.712,0.853-7.573,1.175-11.379,1.005
	c-5.96-0.267-10.574-5.297-10.306-11.234c0.233-5.151,4.064-9.294,8.966-10.126l1.34-0.225c1.664-0.283,3.248-0.721,4.792-1.395
	c1.536-0.761,3.05-1.594,4.512-2.767c2.938-2.247,5.67-5.412,8.106-8.97c4.867-7.227,8.41-16.18,10.915-25.452
	c2.499-9.322,3.934-19.109,4.607-28.939c0.307-4.928,0.42-9.871,0.364-14.811c-0.094-4.945-0.372-9.883-0.797-14.797
	c-1.029-11.92,7.836-22.416,19.802-23.441c11.966-1.026,22.501,7.806,23.53,19.728c0.101,1.168,0.107,2.324,0.024,3.458
	L212.803,325.872z"/>
<g>
	<path style="fill:#E7E4CD;" d="M188.573,318.579c-11.181,0.552-17.543,4.512-19.139,6.314c0.014,0.327,0.006,0.65,0.035,0.979
		c0.425,4.914,0.703,9.852,0.797,14.797c0.056,4.94-0.057,9.883-0.364,14.811c-0.673,9.83-2.108,19.617-4.607,28.939
		c-2.505,9.271-6.048,18.224-10.915,25.452c-2.436,3.558-5.167,6.723-8.106,8.97c-1.463,1.173-2.976,2.006-4.512,2.767
		c-1.544,0.674-3.128,1.111-4.792,1.395l-1.34,0.225c-5.043,0.856-8.953,5.215-8.978,10.572c0.005,0.005,0.009,0.009,0.014,0.014
		c3.651,0.124,7.345-0.193,10.903-1.01c3.658-0.918,7.218-2.204,10.419-3.89c6.479-3.326,11.78-7.789,16.396-12.521
		c4.602-4.764,8.409-9.91,11.793-15.198c3.37-5.296,6.264-10.758,8.818-16.316c5.087-11.124,8.785-22.622,11.581-34.291
		c1.366-5.838,2.496-11.722,3.42-17.642c0.079-0.525,0.155-1.051,0.231-1.576c0.986-6.905-4.535-13.115-11.502-12.798
		C188.675,318.573,188.624,318.576,188.573,318.579z"/>
	<path style="fill:#E7E4CD;" d="M299.197,325.872c0.479,5.979,1.143,11.932,2.028,17.853c0.924,5.92,2.054,11.804,3.42,17.642
		c2.797,11.669,6.494,23.168,11.581,34.291c2.555,5.558,5.45,11.02,8.818,16.316c3.384,5.287,7.191,10.433,11.793,15.198
		c4.616,4.732,9.918,9.194,16.396,12.521c3.201,1.686,6.761,2.973,10.419,3.89c3.712,0.853,7.573,1.175,11.379,1.005
		c5.96-0.267,10.574-5.297,10.306-11.234c-0.233-5.151-4.064-9.294-8.966-10.126l-1.34-0.225c-1.664-0.283-3.248-0.721-4.792-1.395
		c-1.536-0.761-3.05-1.594-4.512-2.767c-2.938-2.247-5.67-5.412-8.106-8.97c-4.867-7.227-8.41-16.18-10.915-25.452
		c-2.499-9.322-3.934-19.109-4.607-28.939c-0.307-4.928-0.42-9.871-0.364-14.811c0.094-4.945,0.372-9.883,0.797-14.797
		c1.029-11.92-7.836-22.416-19.802-23.441c-11.966-1.026-22.501,7.806-23.53,19.728c-0.101,1.168-0.107,2.324-0.024,3.458
		L299.197,325.872z"/>
</g>
<path style="fill:#D5D2BD;" d="M376.37,423.228l-1.34-0.225c-1.664-0.282-3.248-0.721-4.792-1.395
	c-1.536-0.761-3.05-1.594-4.512-2.767c-2.938-2.247-5.67-5.412-8.106-8.97c-4.867-7.227-8.41-16.18-10.915-25.452
	c-2.499-9.322-3.934-19.109-4.607-28.939c-0.307-4.928-0.42-9.871-0.364-14.811c0.094-4.945,0.372-9.883,0.797-14.797
	c1.029-11.92-7.836-22.416-19.802-23.441c-11.966-1.026-22.501,7.806-23.53,19.728c-0.101,1.168-0.107,2.324-0.024,3.458
	l0.024,0.257c0.005,0.064,0.012,0.127,0.017,0.191l0,0c7.115,0,13.165,5.236,14.137,12.286c0.652,4.733,1.461,9.616,2.074,12.238
	c2.797,11.67,6.494,23.168,11.581,34.291c2.555,5.558,5.449,11.02,8.818,16.316c3.384,5.287,7.191,10.433,11.793,15.198
	c4.616,4.732,9.918,9.194,16.396,12.521c3.201,1.686,6.761,2.973,10.419,3.89c3.558,0.817,7.252,1.134,10.903,1.01
	c0.005-0.005,0.009-0.009,0.014-0.014C385.323,428.442,381.413,424.084,376.37,423.228z"/>
<path style="fill:#E7E4CD;" d="M303.874,79.034c-13.949-5.463-28.72-8.46-43.878-8.906c-0.011,0-0.117-0.004-0.128-0.004
	c-1.284-0.037-2.571-0.063-3.871-0.063c-16.404,0.009-32.445,3.066-47.676,9.086c-2.965,1.172-4.965,3.976-5.105,7.163
	c-0.14,3.185,1.605,6.156,4.456,7.584c15.65,7.838,27.966,21.041,34.679,37.171c2.291,5.504,7.588,9.06,13.497,9.06h0.307
	c5.909,0,11.207-3.555,13.497-9.059c6.742-16.204,19.127-29.439,34.873-37.266c2.863-1.423,4.619-4.4,4.478-7.595
	C308.861,83.011,306.85,80.2,303.874,79.034z"/>
<path style="fill:#8D472E;" d="M303.71,78.97c-3.573-1.394-7.204-2.618-10.877-3.686l0,0c0,3.881-1.961,7.488-5.193,9.637
	c-8.917,5.928-16.671,13.4-22.906,22.035c-4.305,5.962-13.166,5.954-17.472-0.008c-6.19-8.569-13.877-15.995-22.71-21.903
	c-3.219-2.153-5.169-5.749-5.169-9.621v-0.082c-3.672,1.082-7.308,2.326-10.896,3.739c-2.378,0.936-4.278,2.893-4.969,5.354
	c-1.08,3.845,0.748,7.752,4.154,9.459c15.65,7.838,27.966,21.041,34.679,37.171c2.291,5.504,7.588,9.06,13.497,9.06h0.307
	c5.909,0,11.207-3.555,13.497-9.059c6.742-16.204,19.127-29.439,34.873-37.266c3.418-1.699,5.257-5.612,4.177-9.465
	C308.008,81.867,306.098,79.902,303.71,78.97z"/>
<path style="fill:#67A0C0;" d="M259.996,70.129c-0.011,0-0.117-0.004-0.128-0.004c-1.284-0.037-2.571-0.063-3.871-0.063
	c-6.891,0.003-13.716,0.552-20.446,1.625v0.002c0,0.813,0.396,1.57,1.055,2.046c3.088,2.226,6.043,4.608,8.857,7.141
	c5.97,5.372,15.038,5.441,21.004,0.064c2.895-2.61,5.939-4.939,9.124-7.2c0.67-0.475,1.073-1.244,1.073-2.065l0,0
	C271.176,70.814,265.613,70.294,259.996,70.129z"/>
<path style="opacity:0.2;fill:#47423F;enable-background:new    ;" d="M303.874,79.034c-13.949-5.463-28.72-8.46-43.878-8.906
	c-0.011,0-0.117-0.004-0.128-0.004c-1.283-0.037-2.569-0.061-3.867-0.061v70.063h0.154c5.909,0,11.207-3.555,13.497-9.059
	c6.742-16.204,19.127-29.439,34.873-37.266c2.863-1.423,4.619-4.4,4.478-7.595C308.861,83.011,306.85,80.2,303.874,79.034z"/>
<path d="M505.769,201.945l-37.757-77.484c-9.378-19.245-23.893-35.516-41.973-47.052c-18.584-11.858-40.11-18.125-62.249-18.125
	c-12.324,0-24.459,1.926-36.074,5.727c-1.511,0.495-3.026,1.025-4.499,1.577c-4.181,1.565-6.302,6.223-4.738,10.405
	c1.565,4.182,6.223,6.305,10.405,4.738c1.265-0.473,2.565-0.929,3.862-1.355c9.988-3.267,20.431-4.924,31.044-4.924
	c38.462,0,72.828,21.492,89.687,56.09l37.757,77.484c3.05,6.263,4.598,13,4.598,20.025c0,11.24-4.11,22.05-11.573,30.438
	l-51.17,57.511c-5.217,5.862-12.219,9.751-19.819,11.159c4.49-7.765,7.506-16.542,9.066-26.431
	c3.178-20.156-0.157-42.734-4.237-64.132c-0.835-4.386-5.071-7.265-9.454-6.427c-4.386,0.835-7.263,5.068-6.427,9.454
	c7.734,40.576,11.724,78.743-23.921,99.84c-0.94,0.557-1.885,1.11-2.854,1.636c-8.135,4.404-16.622,8.369-25.328,11.847
	c-0.241-4.277-0.345-8.699-0.295-13.128c0.086-4.551,0.344-9.348,0.769-14.255c0.684-7.924-1.77-15.637-6.907-21.719
	c-5.131-6.074-12.327-9.793-20.26-10.473c-16.393-1.382-30.864,10.747-32.275,27.086c-0.383,4.448,2.91,8.367,7.359,8.75
	c4.444,0.382,8.367-2.91,8.75-7.359c0.643-7.463,7.283-13.002,14.785-12.369c3.641,0.312,6.939,2.016,9.289,4.797
	c2.343,2.773,3.461,6.287,3.15,9.895c-0.454,5.267-0.732,10.428-0.827,15.401c-0.059,5.237,0.069,10.421,0.383,15.454
	c0.751,10.99,2.389,21.246,4.869,30.498c3,11.1,7.041,20.472,12.049,27.91c3.104,4.535,6.399,8.158,9.795,10.769
	c2.107,1.677,4.166,2.783,5.907,3.644c0.115,0.058,0.234,0.112,0.352,0.165c2.073,0.904,4.254,1.545,6.685,1.957l1.328,0.223
	c1.066,0.181,2.178,1.103,2.242,2.52c0.041,0.908-0.357,1.541-0.698,1.913c-0.283,0.309-0.906,0.834-1.893,0.878
	c-3.125,0.142-6.203-0.126-9.13-0.789c-3.187-0.806-6.06-1.877-8.613-3.221c-4.917-2.524-9.461-6.011-14.273-10.946
	c-3.746-3.877-7.277-8.436-10.786-13.921c-3-4.715-5.714-9.736-8.288-15.337c-4.535-9.917-8.155-20.65-11.071-32.813
	c-1.04-4.341-5.401-7.022-9.745-5.977c-4.342,1.04-7.018,5.403-5.977,9.745c3.161,13.19,7.116,24.892,12.097,35.784
	c2.891,6.287,5.947,11.94,9.355,17.296c4.106,6.417,8.288,11.8,12.815,16.485c6.014,6.167,12.062,10.768,18.415,14.03
	c3.64,1.917,7.75,3.458,12.22,4.579c0.053,0.014,0.106,0.026,0.157,0.038c3.63,0.833,7.389,1.254,11.206,1.254
	c0.779,0,1.561-0.017,2.344-0.053c5.035-0.224,9.682-2.392,13.085-6.101c3.41-3.718,5.163-8.539,4.936-13.572
	c-0.396-8.8-6.993-16.258-15.701-17.735l-1.325-0.222c-1.037-0.177-1.94-0.427-2.754-0.766c-0.974-0.488-1.983-1.038-2.852-1.733
	c-0.047-0.038-0.095-0.075-0.143-0.112c-2.026-1.55-4.221-4.012-6.311-7.065c-3.977-5.909-7.281-13.663-9.813-23.03
	c-0.998-3.724-1.837-7.66-2.527-11.76c10.733-4.078,21.187-8.852,31.154-14.248c1.192-0.647,2.336-1.315,3.391-1.94
	c5.723-3.387,10.737-7.194,15.107-11.411c1.415,1.218,3.253,1.958,5.267,1.958c14.602,0,28.548-6.261,38.262-17.177l51.171-57.511
	c10.098-11.351,15.66-25.978,15.66-41.185C512,219.553,509.903,210.432,505.769,201.945z"/>
<circle cx="320.674" cy="229.052" r="16.168"/>
<circle cx="191.326" cy="229.052" r="16.168"/>
<path d="M158.496,113.301c-3.064,3.248-2.917,8.364,0.331,11.429c3.248,3.064,8.364,2.916,11.428-0.332
	c3.573-3.787,7.309-7.29,11.173-10.537c3.33,3.664,7.302,6.713,11.759,8.947c8.716,4.367,15.572,11.71,19.305,20.68
	c7.323,17.602,24.341,28.976,43.354,28.976h0.307c19.012,0,36.029-11.373,43.352-28.973c3.751-9.011,10.646-16.375,19.414-20.733
	c3.998-1.988,5.628-6.839,3.64-10.838c-1.987-3.998-6.835-5.629-10.838-3.64c-12.255,6.091-21.895,16.39-27.144,29
	c-4.806,11.552-15.964,19.016-28.424,19.016h-0.307c-12.462,0-23.62-7.465-28.426-19.019c-5.222-12.55-14.808-22.822-26.992-28.924
	c-2.157-1.081-4.122-2.486-5.853-4.14c3.322-2.108,6.714-4.053,10.188-5.789c13.702-6.852,28.186-10.832,43.152-11.891v2.395
	c0,4.466,3.62,8.084,8.084,8.084c4.466,0,8.084-3.618,8.084-8.084v-2.404c24.615,1.7,47.833,11.199,67.404,27.639
	c4.603,3.866,7.615,6.456,11.433,10.795c1.597,1.817,3.83,2.744,6.073,2.744c1.897,0,3.801-0.663,5.337-2.015
	c3.352-2.949,3.679-8.058,0.73-11.41c-4.481-5.094-8.125-8.253-13.173-12.495c-23.602-19.826-51.929-30.771-81.897-31.652
	l-0.124-0.004c-1.282-0.037-2.568-0.061-3.865-0.063c-0.001,0-0.001,0-0.002,0h-0.001c-0.001,0-0.002,0-0.003,0
	c-20.374,0.011-40.044,4.687-58.464,13.898C183.272,91.092,170.138,100.965,158.496,113.301z"/>
<path d="M209.239,353.504c-4.336-1.04-8.705,1.636-9.745,5.978c-2.915,12.165-6.536,22.898-11.065,32.8
	c-2.579,5.612-5.291,10.633-8.281,15.334c-3.524,5.505-7.056,10.064-10.771,13.911c-4.84,4.963-9.384,8.45-14.377,11.013
	c-2.478,1.306-5.35,2.377-8.538,3.182c-2.924,0.665-5.994,0.93-9.13,0.789c-0.985-0.044-1.608-0.57-1.892-0.88
	c-0.341-0.372-0.739-1.007-0.698-1.913c0.065-1.415,1.176-2.338,2.231-2.517l1.355-0.229c2.414-0.411,4.595-1.05,6.669-1.954
	c0.12-0.052,0.238-0.108,0.356-0.165c1.741-0.862,3.8-1.968,5.907-3.644c3.394-2.612,6.689-6.236,9.829-10.822
	c4.972-7.386,9.013-16.758,12.017-27.873c2.476-9.239,4.112-19.495,4.867-30.529c0.312-4.984,0.439-10.168,0.378-15.468
	c-0.094-4.924-0.371-10.085-0.825-15.34c-0.039-0.451-0.056-0.9-0.051-1.347c0.038-3.127,1.15-6.119,3.199-8.547
	c2.35-2.781,5.649-4.485,9.289-4.797c7.503-0.636,14.142,4.905,14.787,12.369c0.384,4.447,4.279,7.73,8.75,7.359
	c4.447-0.384,7.743-4.302,7.359-8.75c-1.412-16.34-15.903-28.495-32.274-27.086c-7.934,0.68-15.129,4.399-20.26,10.473
	c-1.285,1.521-2.402,3.143-3.344,4.845c-2.354,4.256-3.616,9.01-3.673,13.915c-0.012,0.981,0.025,1.968,0.111,2.959v0.001
	c0.423,4.895,0.681,9.69,0.766,14.193c0.051,4.5-0.053,8.939-0.294,13.191c-8.703-3.477-17.19-7.444-25.327-11.848
	c-0.974-0.528-1.919-1.082-2.859-1.638c-35.644-21.095-31.653-59.263-23.918-99.839c0.836-4.385-2.042-8.619-6.427-9.454
	c-4.387-0.842-8.619,2.042-9.454,6.427c-4.079,21.397-7.415,43.975-4.237,64.132c1.559,9.888,4.576,18.665,9.066,26.431
	c-7.599-1.408-14.601-5.298-19.817-11.161l-51.172-57.51c-7.467-8.391-11.577-19.202-11.577-30.442
	c0-7.027,1.547-13.765,4.598-20.025l37.758-77.484c16.858-34.598,51.224-56.09,89.686-56.09c11.911,0,23.56,2.077,34.622,6.173
	c4.182,1.55,8.838-0.587,10.388-4.774c1.55-4.188-0.586-8.838-4.774-10.389c-12.865-4.763-26.403-7.179-40.236-7.179
	c-22.14,0-43.666,6.267-62.248,18.124C67.88,88.944,53.367,105.215,43.989,124.46L6.231,201.945C2.097,210.43,0,219.551,0,229.052
	c0,15.207,5.562,29.834,15.662,41.185l51.172,57.51c9.713,10.917,23.659,17.178,38.261,17.178c2.014,0,3.851-0.741,5.267-1.959
	c4.37,4.218,9.384,8.025,15.108,11.412c0.996,0.59,2.162,1.274,3.394,1.941c9.967,5.396,20.423,10.171,31.15,14.248
	c-0.69,4.099-1.525,8.028-2.521,11.743c-2.535,9.382-5.839,17.136-9.782,22.994c-2.126,3.105-4.321,5.566-6.348,7.118
	c-0.047,0.036-0.095,0.072-0.141,0.111c-0.869,0.696-1.877,1.246-2.852,1.734c-0.815,0.338-1.717,0.59-2.739,0.763l-1.351,0.227
	c-8.694,1.475-15.293,8.931-15.69,17.731c-0.227,5.035,1.526,9.855,4.937,13.573c3.403,3.709,8.05,5.877,13.083,6.101
	c0.785,0.036,1.566,0.053,2.346,0.053c3.816,0,7.575-0.42,11.206-1.254c0.053-0.012,0.106-0.024,0.157-0.038
	c4.469-1.121,8.58-2.662,12.144-4.54c6.43-3.302,12.479-7.902,18.518-14.096c4.497-4.654,8.679-10.038,12.8-16.476
	c3.399-5.343,6.456-10.995,9.35-17.293c4.974-10.877,8.929-22.577,12.09-35.77C216.257,358.908,213.581,354.545,209.239,353.504z"/>
<path d="M288.337,328.397c-4.466,0-8.084,3.618-8.084,8.084v73.118l-9.162-12.216c-3.597-4.794-9.096-7.545-15.091-7.545
	c-5.994,0-11.495,2.751-15.091,7.545l-5.67,7.56c-2.679,3.572-1.954,8.639,1.617,11.318c3.571,2.679,8.639,1.954,11.318-1.617
	l5.67-7.56c0.703-0.938,1.652-1.078,2.156-1.078s1.453,0.14,2.156,1.078l21.41,28.548c-0.494,0.557-1.206,0.915-2.008,0.915h-43.116
	c-1.485,0-2.695-1.208-2.695-2.695v-97.371c0-4.466-3.62-8.084-8.084-8.084c-4.465,0-8.084,3.618-8.084,8.084v97.369
	c0,10.401,8.463,18.863,18.863,18.863h43.116c10.196,0,18.507-8.136,18.832-18.254c0.011-0.147,0.019-0.292,0.023-0.439
	c0-0.057,0.009-0.113,0.009-0.17v-97.371C296.421,332.016,292.803,328.397,288.337,328.397z"/>
</svg>