<?xml version="1.0" ?>
<!DOCTYPE svg  PUBLIC '-//W3C//DTD SVG 1.1//EN'  'http://www.w3.org/Graphics/SVG/1.1/DTD/svg11.dtd'>
<!-- Uploaded to: SVG Repo, www.svgrepo.com, Generator: SVG Repo Mixer Tools -->
<svg width="800px" height="800px" viewBox="0 0 512 512" version="1.1" xml:space="preserve" xmlns="http://www.w3.org/2000/svg" xmlns:xlink="http://www.w3.org/1999/xlink">
<g id="_x35_12_x2C__vedio__x2C__lession_x2C__filam__x2C__education">
<g>
<path d="M396,156v170H116V156H396z" style="fill:#FF7979;"/>
<polygon points="126,166 396,166 396,156 116,156 116,326 126,326   " style="fill:#D65B5B;"/>
<polygon points="296,244 236,276 236,216   " style="fill:#F0F1F1;"/>
<polygon points="243.75,228.625 286.991,248.805 296,244 236,216 236,276 243.75,271.866   " style="fill:#DEE0E0;"/>
<rect height="20" width="20" x="306" y="456"/>
<rect height="20" width="20" x="276" y="456"/>
<rect height="20" width="20" x="246" y="456"/>
<rect height="20" width="20" x="216" y="456"/>
<rect height="20" width="20" x="186" y="456"/>
<path d="M396,161H116c-2.761,0-5-2.239-5-5s2.239-5,5-5h280c2.762,0,5,2.239,5,5S398.762,161,396,161z"/>
<path d="M396,331H116c-2.761,0-5-2.238-5-5s2.239-5,5-5h280c2.762,0,5,2.238,5,5S398.762,331,396,331z"/>
<path d="M116,451c-2.761,0-5-2.238-5-5V36c0-2.761,2.239-5,5-5s5,2.239,5,5v410C121,448.762,118.761,451,116,451z"/>
<path d="M396,451c-2.762,0-5-2.238-5-5V36c0-2.761,2.238-5,5-5s5,2.239,5,5v410C401,448.762,398.762,451,396,451z"/>
<path d="M456,451c-2.762,0-5-2.238-5-5V36c0-2.761,2.238-5,5-5s5,2.239,5,5v410C461,448.762,458.762,451,456,451z"/>
<path d="M456,71h-30c-2.762,0-5-2.239-5-5s2.238-5,5-5h30c2.762,0,5,2.239,5,5S458.762,71,456,71z"/>
<path d="M456,111h-30c-2.762,0-5-2.239-5-5s2.238-5,5-5h30c2.762,0,5,2.239,5,5S458.762,111,456,111z"/>
<path d="M456,151h-30c-2.762,0-5-2.239-5-5s2.238-5,5-5h30c2.762,0,5,2.239,5,5S458.762,151,456,151z"/>
<path d="M456,191h-30c-2.762,0-5-2.239-5-5s2.238-5,5-5h30c2.762,0,5,2.239,5,5S458.762,191,456,191z"/>
<path d="M456,231h-30c-2.762,0-5-2.239-5-5s2.238-5,5-5h30c2.762,0,5,2.239,5,5S458.762,231,456,231z"/>
<path d="M456,271h-30c-2.762,0-5-2.238-5-5s2.238-5,5-5h30c2.762,0,5,2.238,5,5S458.762,271,456,271z"/>
<path d="M456,311h-30c-2.762,0-5-2.238-5-5s2.238-5,5-5h30c2.762,0,5,2.238,5,5S458.762,311,456,311z"/>
<path d="M456,351h-30c-2.762,0-5-2.238-5-5s2.238-5,5-5h30c2.762,0,5,2.238,5,5S458.762,351,456,351z"/>
<path d="M456,391h-30c-2.762,0-5-2.238-5-5s2.238-5,5-5h30c2.762,0,5,2.238,5,5S458.762,391,456,391z"/>
<path d="M456,431h-30c-2.762,0-5-2.238-5-5s2.238-5,5-5h30c2.762,0,5,2.238,5,5S458.762,431,456,431z"/>
<path d="M56,451c-2.761,0-5-2.238-5-5V36c0-2.761,2.239-5,5-5s5,2.239,5,5v410C61,448.762,58.761,451,56,451z"/>
<path d="M86,421H56c-2.761,0-5-2.238-5-5s2.239-5,5-5h30c2.761,0,5,2.238,5,5S88.761,421,86,421z"/>
<path d="M86,381H56c-2.761,0-5-2.238-5-5s2.239-5,5-5h30c2.761,0,5,2.238,5,5S88.761,381,86,381z"/>
<path d="M86,341H56c-2.761,0-5-2.238-5-5s2.239-5,5-5h30c2.761,0,5,2.238,5,5S88.761,341,86,341z"/>
<path d="M86,301H56c-2.761,0-5-2.238-5-5s2.239-5,5-5h30c2.761,0,5,2.238,5,5S88.761,301,86,301z"/>
<path d="M86,261H56c-2.761,0-5-2.238-5-5c0-2.761,2.239-5,5-5h30c2.761,0,5,2.239,5,5C91,258.762,88.761,261,86,261z"/>
<path d="M86,221H56c-2.761,0-5-2.239-5-5s2.239-5,5-5h30c2.761,0,5,2.239,5,5S88.761,221,86,221z"/>
<path d="M86,181H56c-2.761,0-5-2.239-5-5s2.239-5,5-5h30c2.761,0,5,2.239,5,5S88.761,181,86,181z"/>
<path d="M86,141H56c-2.761,0-5-2.239-5-5s2.239-5,5-5h30c2.761,0,5,2.239,5,5S88.761,141,86,141z"/>
<path d="M86,101H56c-2.761,0-5-2.239-5-5s2.239-5,5-5h30c2.761,0,5,2.239,5,5S88.761,101,86,101z"/>
<path d="M86,61H56c-2.761,0-5-2.239-5-5s2.239-5,5-5h30c2.761,0,5,2.239,5,5S88.761,61,86,61z"/>
<path d="M236,281c-0.892,0-1.782-0.238-2.572-0.713C231.921,279.384,231,277.756,231,276v-60c0-1.709,0.873-3.299,2.314-4.217    c1.442-0.918,3.252-1.037,4.8-0.313l60,28c1.717,0.801,2.833,2.503,2.884,4.397s-0.974,3.653-2.646,4.545l-60,32    C237.617,280.805,236.808,281,236,281z M241,223.851v43.816l43.815-23.369L241,223.851z"/>
<path d="M396,411H176c-2.761,0-5-2.238-5-5s2.239-5,5-5h220c2.762,0,5,2.238,5,5S398.762,411,396,411z"/>
<path d="M336,101H116c-2.761,0-5-2.239-5-5s2.239-5,5-5h220c2.762,0,5,2.239,5,5S338.762,101,336,101z"/>
<path d="M256,51h-90c-2.761,0-5-2.239-5-5s2.239-5,5-5h90c2.762,0,5,2.239,5,5S258.762,51,256,51z"/>
</g>
</g>
<g id="Layer_1"/>
</svg>