<?xml version="1.0" encoding="iso-8859-1"?>
<!-- Uploaded to: SVG Repo, www.svgrepo.com, Generator: SVG Repo Mixer Tools -->
<svg height="800px" width="800px" version="1.1" id="Layer_1" xmlns="http://www.w3.org/2000/svg" xmlns:xlink="http://www.w3.org/1999/xlink" 
	 viewBox="0 0 512.001 512.001" xml:space="preserve">
<path style="fill:#666666;" d="M413.875,112.217c48.34,0,87.532,39.182,87.532,87.521c0,48.35-39.193,87.532-87.532,87.532
	c-0.305,0-0.611,0-0.906,0c0.601-5.009,0.906-10.117,0.906-15.291v-9.539c0-4.9-0.371-9.703-1.091-14.396
	c0.36,0.011,0.731,0.011,1.091,0.011c26.685,0,48.317-21.632,48.317-48.317s-21.632-48.317-48.317-48.317
	c-20.377,0-37.796,12.606-44.901,30.451c-11.013-6.821-23.52-11.449-36.923-13.26v-0.022
	C344.602,135.628,376.505,112.217,413.875,112.217z"/>
<g>
	<path style="fill:#B3B3B3;" d="M413.875,151.421c26.685,0,48.317,21.632,48.317,48.317s-21.632,48.317-48.317,48.317
		c-0.36,0-0.731,0-1.091-0.011c-4.256-27.951-20.737-51.876-43.81-66.173C376.079,164.027,393.498,151.421,413.875,151.421z"/>
	<path style="fill:#B3B3B3;" d="M413.875,262.441v9.539c0,5.174-0.305,10.282-0.906,15.291
		c-7.553,63.38-61.491,112.515-126.911,112.515h-66.566c-65.463,0-119.446-49.235-126.911-112.69
		c-0.589-4.955-0.895-9.998-0.895-15.116v-9.539c0-4.988,0.382-9.889,1.136-14.668c4.639-29.873,23.236-55.117,48.906-68.869
		c11.449-6.145,24.316-9.986,37.982-10.947c2.216-0.153,4.442-0.229,6.691-0.229h132.75c4.377,0,8.687,0.294,12.9,0.885
		c13.402,1.811,25.911,6.44,36.923,13.26c23.073,14.298,39.554,38.222,43.81,66.173C413.503,252.738,413.875,257.54,413.875,262.441
		z M289.234,268.225c0-38.887-16.328-70.408-36.454-70.408c-20.136,0-36.454,31.521-36.454,70.408s16.317,62.178,36.454,62.178
		C272.906,330.403,289.234,307.112,289.234,268.225z"/>
</g>
<g>
	<path style="fill:#666666;" d="M252.78,197.818c20.126,0,36.454,31.521,36.454,70.408s-16.328,62.178-36.454,62.178
		c-20.136,0-36.454-23.291-36.454-62.178S232.644,197.818,252.78,197.818z"/>
	<path style="fill:#666666;" d="M98.125,112.217c37.13,0,68.858,23.116,81.584,55.739c-13.665,0.961-26.533,4.802-37.982,10.947
		v-0.011c-7.782-16.24-24.382-27.471-43.602-27.471c-26.685,0-48.317,21.632-48.317,48.317c0,24.896,18.817,45.382,43.002,48.033
		h0.011c-0.753,4.781-1.136,9.681-1.136,14.668v9.539c0,5.119,0.305,10.161,0.895,15.116h-0.011
		c-45.752-2.87-81.976-40.884-81.976-87.357C10.593,151.399,49.787,112.217,98.125,112.217z"/>
</g>
<path style="fill:#B3B3B3;" d="M141.727,178.892v0.011c-25.67,13.752-44.269,38.996-48.906,68.869H92.81
	c-24.186-2.653-43.002-23.139-43.002-48.033c0-26.685,21.632-48.317,48.317-48.317C117.345,151.421,133.946,162.652,141.727,178.892
	z"/>
<path d="M413.875,101.624c-20.284,0-39.753,6.137-56.302,17.747c-13.927,9.77-24.934,22.788-32.197,37.958
	c-2.065-0.122-4.142-0.195-6.225-0.195H305.48c-5.85,0-10.593,4.743-10.593,10.593s4.744,10.593,10.593,10.593h13.671
	c3.876,0,7.723,0.264,11.481,0.788c11.683,1.579,22.707,5.539,32.763,11.768c21.029,13.032,35.214,34.45,38.918,58.775
	c0.643,4.192,0.969,8.495,0.969,12.79v9.539c0,4.714-0.28,9.434-0.832,14.037c-7.008,58.819-57.046,103.175-116.392,103.175h-66.566
	c-59.423,0-109.461-44.424-116.392-103.347c-0.544-4.58-0.821-9.246-0.821-13.865v-9.539c0-4.401,0.339-8.783,1.01-13.043
	c4.018-25.875,20.258-48.737,43.449-61.16c10.442-5.604,21.775-8.871,33.673-9.711c0.025-0.002,0.051-0.003,0.076-0.005
	c1.951-0.133,3.94-0.201,5.913-0.201h55.957c5.851,0,10.593-4.743,10.593-10.593s-4.743-10.593-10.593-10.593H186.54
	c-7.326-15.204-18.42-28.234-32.419-37.975c-16.484-11.471-35.846-17.535-55.994-17.535C44.019,101.624,0,145.638,0,199.738
	c0,48.771,35.957,89.806,83.317,96.993c11.76,65.357,68.865,113.647,136.176,113.647h66.566c67.015,0,123.973-47.92,136.054-112.864
	c50.266-4.198,89.889-46.444,89.889-97.777C512,145.638,467.981,101.624,413.875,101.624z M84.723,235.022
	c-14.35-5.424-24.322-19.258-24.322-35.284c0-20.802,16.924-37.724,37.724-37.724c11.22,0,21.776,5.102,28.863,13.486
	C106.325,189.672,91.242,210.917,84.723,235.022z M21.186,199.738c0-42.418,34.516-76.928,76.939-76.928
	c27.326,0,51.859,14.072,65.657,36.759c-6.142,1.34-12.128,3.228-17.928,5.656c-10.968-15.081-28.753-24.397-47.729-24.397
	c-32.484,0-58.91,26.428-58.91,58.91c0,26.515,17.488,49.195,42.08,56.474c-0.121,2.07-0.201,4.147-0.201,6.229v9.539
	c0,0.93,0.022,1.862,0.041,2.794C46.693,266.997,21.186,236.114,21.186,199.738z M382.704,178.47
	c6.918-10.194,18.443-16.455,31.17-16.455c20.802,0,37.724,16.924,37.724,37.724c0,18.263-13.046,33.533-30.308,36.988
	C415.47,213.5,401.876,192.975,382.704,178.47z M424.409,275.938c0.037-1.319,0.058-2.639,0.058-3.959v-9.539
	c0-1.582-0.047-3.163-0.118-4.744c27.501-4.959,48.435-29.053,48.435-57.959c0-32.484-26.427-58.91-58.91-58.91
	c-20.246,0-38.545,10.142-49.274,26.589c-5.541-2.66-11.276-4.81-17.175-6.444c13.635-23.235,38.977-38.163,66.45-38.163
	c42.425,0,76.94,34.51,76.94,76.928C490.814,238.588,461.865,270.784,424.409,275.938z"/>
<path d="M261.232,167.727c0,5.851,4.744,10.593,10.593,10.593h4.005c5.85,0,10.593-4.743,10.593-10.593s-4.744-10.593-10.593-10.593
	h-4.005C265.975,157.134,261.232,161.876,261.232,167.727z"/>
<path d="M161.493,222.499c-20.501,0-37.18,16.679-37.18,37.181c0,5.851,4.743,10.593,10.593,10.593
	c5.851,0,10.593-4.743,10.593-10.593c0-8.819,7.175-15.995,15.993-15.995c8.813,0,15.983,7.175,15.983,15.995
	c0,5.851,4.743,10.593,10.593,10.593c5.851,0,10.593-4.743,10.593-10.593C198.663,239.178,181.989,222.499,161.493,222.499z"/>
<path d="M331.086,259.68c0-8.819,7.174-15.995,15.993-15.995c8.82,0,15.995,7.175,15.995,15.995c0,5.851,4.744,10.593,10.593,10.593
	s10.593-4.743,10.593-10.593c0-20.502-16.679-37.181-37.181-37.181c-20.501,0-37.18,16.679-37.18,37.181
	c0,5.851,4.744,10.593,10.593,10.593S331.086,265.53,331.086,259.68z"/>
<path d="M287.567,319.463c8.02-12.987,12.259-30.705,12.259-51.238c0-20.47-4.215-39.881-11.865-54.658
	c-8.798-16.988-21.291-26.343-35.181-26.343c-13.895,0-26.391,9.356-35.185,26.344c-7.649,14.774-11.861,34.185-11.861,54.657
	c0,20.535,4.237,38.252,12.255,51.237c5.526,8.951,12.63,15.291,20.689,18.681c-4.015,11.056-12.586,22.967-30.897,22.967
	c-5.851,0-10.593,4.743-10.593,10.593s4.743,10.593,10.593,10.593c19.542,0,35.262-8.895,45.002-24.687
	c9.742,15.792,25.462,24.687,44.997,24.687c5.85,0,10.593-4.743,10.593-10.593s-4.744-10.593-10.593-10.593
	c-18.307,0-26.88-11.914-30.898-22.968C274.939,334.753,282.04,328.413,287.567,319.463z M252.78,319.811
	c-12.85,0-25.861-17.719-25.861-51.585c0-34.235,13.653-59.815,25.861-59.815c10.799,0,25.861,22.755,25.861,59.815
	C278.641,302.092,265.631,319.811,252.78,319.811z"/>
</svg>